<svg xmlns="http://www.w3.org/2000/svg" viewBox="0 0 71.04 71.04"><defs><style>.cls-1{fill:#dee7ed;}.cls-2{fill:#0a2343;}</style></defs><g id="Layer_2" data-name="Layer 2"><g id="Layer_1-2" data-name="Layer 1"><circle class="cls-1" cx="35.52" cy="35.52" r="35.52"/><path class="cls-2" d="M30.45,30.52v0c-2.51,4.34-22-3.18-22.66-1.36-.19.5,1.1,1.61,4.61,3.6a23.93,23.93,0,0,1,12.16,21c0,4,.28,5.69.81,5.77,1.91.32,5.13-20.3,10.15-20.3s8.24,20.62,10.15,20.3c.53-.08.85-1.76.81-5.8a23.93,23.93,0,0,1,12.16-21c3.51-2,4.81-3.1,4.62-3.6-.69-1.82-20.15,5.7-22.66,1.36s13.73-17.45,12.5-19c-.34-.41-2,.16-5.45,2.22a23.94,23.94,0,0,1-24.31,0c-3.46-2-5.06-2.6-5.4-2.19C16.71,13.09,32.92,26.17,30.45,30.52Z"/></g></g></svg>