<svg width="245" height="245" viewBox="0 0 245 245" fill="none" xmlns="http://www.w3.org/2000/svg">
<g clip-path="url(#clip0_265_5)">
<path d="M122.5 245C190.155 245 245 190.155 245 122.5C245 54.8451 190.155 0 122.5 0C54.8451 0 0 54.8451 0 122.5C0 190.155 54.8451 245 122.5 245Z" fill="#0A2343"/>
<path d="M106.303 107.068C98.3004 120.905 36.1619 96.9297 34.0577 102.732C33.452 104.326 37.5648 107.865 48.7554 114.21C60.5995 120.9 70.4395 130.636 77.256 142.408C84.0725 154.18 87.6176 167.56 87.5242 181.163C87.5242 193.915 88.4169 199.304 90.1067 199.559C96.1962 200.579 106.462 134.838 122.467 134.838C138.472 134.838 148.738 200.579 154.828 199.559C156.517 199.304 157.538 193.947 157.41 181.067C157.317 167.464 160.862 154.084 167.678 142.312C174.495 130.54 184.335 120.805 196.179 114.114C207.37 107.738 211.514 104.231 210.908 102.637C208.709 96.8341 146.666 120.81 138.663 106.973C130.661 93.1357 182.438 51.3381 178.516 46.3964C177.432 45.0892 172.14 46.9065 161.14 53.4742C149.398 60.3944 136.017 64.044 122.387 64.044C108.758 64.044 95.3768 60.3944 83.6346 53.4742C72.6033 47.0978 67.5022 45.1848 66.4182 46.492C62.4967 51.4975 114.178 93.1995 106.303 107.068Z" fill="#DEE7ED"/>
</g>
<defs>
<clipPath id="clip0_265_5">
<rect width="245" height="245" fill="white"/>
</clipPath>
</defs>
</svg>
